REM DIRINDEX 1\2,1\3,1\4,1\5
REM DIRNAME cjc044,folder01,folder02,folder03,folder04
TITLE ""
FILE "1800_062.mp3" MP3
  TRACK 01 AUDIO
    TITLE "2:cjc044_1529"
    INDEX 01 00:00:00
  TRACK 02 AUDIO
    TITLE "0:"
    INDEX 01 00:00:70
  TRACK 03 AUDIO
    TITLE "3:cjc044_1530"
    INDEX 01 00:01:62
  TRACK 04 AUDIO
    TITLE "0:"
    INDEX 01 00:02:65
  TRACK 05 AUDIO
    TITLE "4:cjc044_1531"
    INDEX 01 00:03:47
  TRACK 06 AUDIO
    TITLE "0:"
    INDEX 01 00:04:52
  TRACK 07 AUDIO
    TITLE "5:cjc044_1532"
    INDEX 01 00:05:38
  TRACK 08 AUDIO
    TITLE "0:"
    INDEX 01 00:08:40
  TRACK 09 AUDIO
    TITLE "2:cjc044_1533"
    INDEX 01 00:10:19
  TRACK 10 AUDIO
    TITLE "0:"
    INDEX 01 00:11:17
  TRACK 11 AUDIO
    TITLE "3:cjc044_1534"
    INDEX 01 00:12:03
  TRACK 12 AUDIO
    TITLE "0:"
    INDEX 01 00:13:71
  TRACK 13 AUDIO
    TITLE "4:cjc044_1535"
    INDEX 01 00:14:51
  TRACK 14 AUDIO
    TITLE "0:"
    INDEX 01 00:15:48
  TRACK 15 AUDIO
    TITLE "5:cjc044_1536"
    INDEX 01 00:16:26
  TRACK 16 AUDIO
    TITLE "0:"
    INDEX 01 00:19:28
  TRACK 17 AUDIO
    TITLE "2:cjc044_1537"
    INDEX 01 00:21:17
  TRACK 18 AUDIO
    TITLE "0:"
    INDEX 01 00:22:25
  TRACK 19 AUDIO
    TITLE "3:cjc044_1538"
    INDEX 01 00:23:08
  TRACK 20 AUDIO
    TITLE "0:"
    INDEX 01 00:24:27
  TRACK 21 AUDIO
    TITLE "4:cjc044_1539"
    INDEX 01 00:25:13
  TRACK 22 AUDIO
    TITLE "0:"
    INDEX 01 00:26:20
  TRACK 23 AUDIO
    TITLE "5:cjc044_1540"
    INDEX 01 00:27:06
  TRACK 24 AUDIO
    TITLE "0:"
    INDEX 01 00:30:16
  TRACK 25 AUDIO
    TITLE "2:cjc044_1541"
    INDEX 01 00:32:00
  TRACK 26 AUDIO
    TITLE "0:"
    INDEX 01 00:33:01
  TRACK 27 AUDIO
    TITLE "3:cjc044_1542"
    INDEX 01 00:33:64
  TRACK 28 AUDIO
    TITLE "0:"
    INDEX 01 00:34:67
  TRACK 29 AUDIO
    TITLE "4:cjc044_1543"
    INDEX 01 00:35:53
  TRACK 30 AUDIO
    TITLE "0:"
    INDEX 01 00:36:56
  TRACK 31 AUDIO
    TITLE "5:cjc044_1544"
    INDEX 01 00:37:28
  TRACK 32 AUDIO
    TITLE "0:"
    INDEX 01 00:41:14
  TRACK 33 AUDIO
    TITLE "2:cjc044_1545"
    INDEX 01 00:43:07
  TRACK 34 AUDIO
    TITLE "0:"
    INDEX 01 00:44:01
  TRACK 35 AUDIO
    TITLE "3:cjc044_1546"
    INDEX 01 00:44:60
  TRACK 36 AUDIO
    TITLE "0:"
    INDEX 01 00:46:02
  TRACK 37 AUDIO
    TITLE "4:cjc044_1547"
    INDEX 01 00:46:54
  TRACK 38 AUDIO
    TITLE "0:"
    INDEX 01 00:47:50
  TRACK 39 AUDIO
    TITLE "5:cjc044_1548"
    INDEX 01 00:48:42
  TRACK 40 AUDIO
    TITLE "0:"
    INDEX 01 00:52:43
  TRACK 41 AUDIO
    TITLE "2:cjc044_1549"
    INDEX 01 00:54:29
  TRACK 42 AUDIO
    TITLE "0:"
    INDEX 01 00:55:24
  TRACK 43 AUDIO
    TITLE "3:cjc044_1550"
    INDEX 01 00:56:08
  TRACK 44 AUDIO
    TITLE "0:"
    INDEX 01 00:57:23
  TRACK 45 AUDIO
    TITLE "4:cjc044_1551"
    INDEX 01 00:58:07
  TRACK 46 AUDIO
    TITLE "0:"
    INDEX 01 00:59:04
  TRACK 47 AUDIO
    TITLE "5:cjc044_1552"
    INDEX 01 00:59:51
  TRACK 48 AUDIO
    TITLE "0:"
    INDEX 01 01:02:61
  TRACK 49 AUDIO
    TITLE "2:cjc044_1553"
    INDEX 01 01:04:48
  TRACK 50 AUDIO
    TITLE "0:"
    INDEX 01 01:05:58
  TRACK 51 AUDIO
    TITLE "3:cjc044_1554"
    INDEX 01 01:06:45
  TRACK 52 AUDIO
    TITLE "0:"
    INDEX 01 01:07:49
  TRACK 53 AUDIO
    TITLE "4:cjc044_1555"
    INDEX 01 01:08:36
  TRACK 54 AUDIO
    TITLE "0:"
    INDEX 01 01:09:38
  TRACK 55 AUDIO
    TITLE "5:cjc044_1556"
    INDEX 01 01:10:16
  TRACK 56 AUDIO
    TITLE "0:"
    INDEX 01 01:13:44
  TRACK 57 AUDIO
    TITLE "2:cjc044_1557"
    INDEX 01 01:15:31
  TRACK 58 AUDIO
    TITLE "0:"
    INDEX 01 01:16:34
  TRACK 59 AUDIO
    TITLE "3:cjc044_1558"
    INDEX 01 01:17:28
  TRACK 60 AUDIO
    TITLE "0:"
    INDEX 01 01:18:29
  TRACK 61 AUDIO
    TITLE "4:cjc044_1559"
    INDEX 01 01:19:15
  TRACK 62 AUDIO
    TITLE "0:"
    INDEX 01 01:20:20
  TRACK 63 AUDIO
    TITLE "5:cjc044_1560"
    INDEX 01 01:21:14
  TRACK 64 AUDIO
    TITLE "0:"
    INDEX 01 01:24:57
